<svg width="2100" height="2023" viewBox="0 0 2100 2023" fill="none" xmlns="http://www.w3.org/2000/svg">
<g clip-path="url(#clip0_12_14)">
<rect width="2100" height="2023" fill="#F7F7F5"/>
<circle cx="40.5" cy="994.5" r="136" stroke="black" stroke-opacity="0.03"/>
<circle cx="65.5" cy="1011.5" r="293.5" fill="#EFEFEE" fill-opacity="0.3"/>
<circle cx="1816" cy="1992" r="211" fill="#EFEFEE" fill-opacity="0.3"/>
<circle cx="1948.5" cy="801.5" r="397.5" fill="#EFEFEE" fill-opacity="0.3"/>
<path d="M1654.64 107.703C1654.83 106.531 1654.98 105.408 1655.08 104.334C1655.27 103.162 1655.37 102.039 1655.37 100.965C1655.37 96.8633 1654.54 92.957 1652.88 89.2461C1651.32 85.4375 1648.97 82.1172 1645.85 79.2852C1642.82 76.3555 1639.11 74.0605 1634.72 72.4004C1630.32 70.6426 1625.39 69.7637 1619.92 69.7637C1614.16 69.7637 1608.06 71.0332 1601.61 73.5723C1595.17 76.0137 1588.72 80.3594 1582.28 86.6094C1576.03 92.6641 1569.58 100.477 1562.94 110.047C1556.4 119.52 1549.85 130.018 1543.31 141.541C1536.87 152.967 1530.52 165.027 1524.27 177.723C1518.12 190.418 1512.26 202.918 1506.69 215.223C1501.12 227.527 1496 239.295 1491.31 250.525C1486.62 261.756 1482.57 271.668 1479.15 280.262C1475.73 288.758 1473.05 295.594 1471.09 300.77C1469.24 305.945 1468.26 308.631 1468.16 308.826L1460.69 306.922C1459.52 299.402 1458.45 292.615 1457.47 286.561C1456.59 280.506 1455.81 274.695 1455.13 269.129C1454.54 263.562 1454.1 258.045 1453.81 252.576C1453.52 247.107 1453.37 241.248 1453.37 234.998C1453.37 229.92 1453.56 224.109 1453.96 217.566C1454.44 211.023 1455.08 204.09 1455.86 196.766C1456.74 189.441 1457.71 181.922 1458.79 174.207C1459.96 166.492 1461.18 158.924 1462.45 151.502C1463.82 144.08 1465.23 137.049 1466.7 130.408C1468.16 123.67 1469.68 117.615 1471.24 112.244C1462.94 124.646 1455.32 137.146 1448.39 149.744C1441.55 162.342 1435.06 174.695 1428.91 186.805C1422.75 198.914 1416.8 210.682 1411.04 222.107C1405.27 233.436 1399.37 244.08 1393.31 254.041C1387.26 264.002 1380.86 273.133 1374.12 281.434C1367.38 289.734 1359.96 296.814 1351.86 302.674C1343.85 308.631 1334.96 313.221 1325.2 316.443C1315.43 319.764 1304.49 321.424 1292.38 321.424C1283.2 321.424 1274.51 320.154 1266.31 317.615C1258.2 315.076 1251.07 311.512 1244.92 306.922C1238.77 302.332 1233.94 296.766 1230.42 290.223C1226.81 283.68 1225 276.453 1225 268.543C1225 259.559 1226.95 251.551 1230.86 244.52C1234.67 237.391 1239.75 231.434 1246.09 226.648C1252.44 221.766 1259.77 218.055 1268.07 215.516C1276.37 212.977 1284.96 211.707 1293.85 211.707C1298.93 211.707 1304.05 212.049 1309.23 212.732C1314.5 213.416 1319.63 214.539 1324.61 216.102C1329.69 217.664 1334.57 219.764 1339.26 222.4C1343.95 224.939 1348.29 228.113 1352.29 231.922L1346.58 237.049C1346.58 237.049 1345.51 236.17 1343.36 234.412C1341.31 232.557 1338.18 230.555 1333.98 228.406C1329.88 226.258 1324.66 224.305 1318.31 222.547C1311.96 220.691 1304.54 219.764 1296.04 219.764C1289.21 219.764 1282.57 220.74 1276.12 222.693C1269.68 224.646 1263.92 227.527 1258.84 231.336C1253.86 235.145 1249.85 239.832 1246.83 245.398C1243.8 250.965 1242.29 257.41 1242.29 264.734C1242.29 272.254 1243.9 278.992 1247.12 284.949C1250.34 290.809 1254.64 295.74 1260.01 299.744C1265.38 303.846 1271.48 306.922 1278.32 308.973C1285.16 311.121 1292.19 312.195 1299.41 312.195C1310.16 312.195 1319.87 310.389 1328.56 306.775C1337.35 303.26 1345.46 298.279 1352.88 291.834C1360.4 285.389 1367.38 277.674 1373.83 268.689C1380.37 259.705 1386.72 249.793 1392.87 238.953C1399.02 228.113 1405.22 216.541 1411.47 204.236C1417.72 191.834 1424.32 179.041 1431.25 165.857C1438.18 152.674 1445.65 139.246 1453.66 125.574C1461.67 111.902 1470.51 98.3281 1480.18 84.8516L1486.91 88.3672C1483.69 97.8398 1481.1 107.85 1479.15 118.396C1477.2 128.846 1475.68 139.637 1474.61 150.77C1473.63 161.805 1472.95 172.986 1472.56 184.314C1472.27 195.643 1472.07 206.824 1471.97 217.859C1471.88 228.895 1471.78 239.686 1471.68 250.232C1471.68 260.682 1471.44 270.594 1470.95 279.969C1474.27 271.473 1478.27 261.561 1482.96 250.232C1487.65 238.904 1492.82 226.941 1498.49 214.344C1504.15 201.746 1510.16 188.953 1516.5 175.965C1522.95 162.879 1529.49 150.379 1536.13 138.465C1542.87 126.551 1549.66 115.662 1556.49 105.799C1563.43 95.8379 1570.21 87.6348 1576.86 81.1895C1584.18 74.1582 1591.5 69.2266 1598.83 66.3945C1606.25 63.4648 1613.33 62 1620.07 62C1626.71 62 1632.67 63.123 1637.94 65.3691C1643.31 67.5176 1647.85 70.3984 1651.56 74.0117C1655.27 77.5273 1658.11 81.6289 1660.06 86.3164C1662.01 91.0039 1662.99 95.8379 1662.99 100.818C1662.99 103.553 1662.7 106.385 1662.11 109.314L1654.64 107.703Z" fill="#F3F3F2"/>
<path d="M1546.68 263.709C1546.48 264.881 1546.34 266.053 1546.24 267.225C1546.14 268.396 1546.09 269.568 1546.09 270.74C1546.09 274.256 1546.58 277.625 1547.56 280.848C1548.63 283.973 1550.15 286.756 1552.1 289.197C1554.15 291.541 1556.64 293.396 1559.57 294.764C1562.6 296.131 1566.02 296.814 1569.82 296.814C1582.62 296.814 1594.97 292.469 1606.88 283.777C1618.8 275.086 1630.66 261.316 1642.48 242.469L1647.46 246.863C1641.02 257.605 1634.47 266.688 1627.83 274.109C1621.19 281.434 1614.55 287.391 1607.91 291.98C1601.37 296.57 1594.92 299.891 1588.57 301.941C1582.23 303.992 1576.17 305.018 1570.41 305.018C1566.21 305.018 1561.77 304.432 1557.08 303.26C1552.39 302.088 1548.05 300.135 1544.04 297.4C1540.14 294.666 1536.91 291.004 1534.38 286.414C1531.74 281.824 1530.42 276.111 1530.42 269.275C1530.42 261.951 1531.69 254.92 1534.23 248.182C1536.67 241.346 1539.89 234.998 1543.9 229.139C1547.9 223.279 1552.49 217.957 1557.67 213.172C1562.84 208.289 1568.07 204.139 1573.34 200.721C1578.71 197.303 1583.94 194.666 1589.01 192.811C1594.09 190.857 1598.58 189.881 1602.49 189.881C1605.03 189.881 1607.62 190.271 1610.25 191.053C1612.89 191.834 1615.23 193.055 1617.29 194.715C1619.43 196.375 1621.14 198.572 1622.41 201.307C1623.78 204.041 1624.46 207.312 1624.46 211.121C1624.46 216.297 1623.24 221.18 1620.8 225.77C1618.46 230.262 1615.28 234.461 1611.28 238.367C1607.28 242.176 1602.64 245.643 1597.36 248.768C1592.09 251.795 1586.57 254.383 1580.81 256.531C1575.05 258.68 1569.24 260.389 1563.38 261.658C1557.52 262.928 1551.95 263.611 1546.68 263.709ZM1547.85 257.41C1554.39 256.727 1560.55 255.359 1566.31 253.309C1572.07 251.258 1577.34 248.768 1582.13 245.838C1586.91 242.811 1591.16 239.539 1594.87 236.023C1598.68 232.508 1601.86 228.943 1604.39 225.33C1606.93 221.717 1608.89 218.25 1610.25 214.93C1611.62 211.609 1612.3 208.631 1612.3 205.994C1612.3 203.357 1611.57 201.258 1610.11 199.695C1608.74 198.133 1607.08 197.352 1605.13 197.352C1600.83 197.352 1596 198.914 1590.62 202.039C1585.25 205.066 1579.88 209.314 1574.51 214.783C1569.14 220.154 1564.06 226.502 1559.28 233.826C1554.59 241.15 1550.78 249.012 1547.85 257.41Z" fill="#F3F3F2"/>
<path d="M1683.06 199.695C1677.49 208.191 1672.75 216.297 1668.85 224.012C1664.94 231.629 1661.72 238.709 1659.18 245.252C1656.64 251.795 1654.79 257.752 1653.61 263.123C1652.44 268.494 1651.86 273.133 1651.86 277.039C1651.86 286.023 1654.44 290.516 1659.62 290.516C1662.74 290.516 1666.31 288.953 1670.31 285.828C1674.41 282.703 1678.56 278.553 1682.76 273.377C1686.96 268.201 1691.06 262.244 1695.07 255.506C1699.07 248.768 1702.59 241.785 1705.62 234.559L1705.76 234.705C1708.59 227.674 1711.67 220.789 1714.99 214.051C1718.41 207.312 1721.88 201.16 1725.39 195.594L1731.98 199.695C1730.32 204.285 1728.32 209.852 1725.98 216.395C1723.63 222.938 1721.39 229.822 1719.24 237.049C1717.19 244.178 1715.38 251.307 1713.82 258.436C1712.35 265.564 1711.62 272.01 1711.62 277.771C1711.62 279.432 1711.67 281.043 1711.77 282.605C1711.96 284.07 1712.26 285.389 1712.65 286.561C1713.04 287.732 1713.62 288.66 1714.4 289.344C1715.19 290.027 1716.16 290.369 1717.33 290.369C1720.65 290.369 1724.41 288.904 1728.61 285.975C1732.91 283.045 1737.16 279.285 1741.36 274.695C1745.65 270.008 1749.71 264.881 1753.52 259.314C1757.42 253.65 1760.69 248.182 1763.33 242.908C1759.42 235.682 1757.47 227.479 1757.47 218.299C1757.47 213.221 1757.91 208.924 1758.79 205.408C1759.77 201.893 1760.94 199.061 1762.3 196.912C1763.67 194.666 1765.19 193.104 1766.85 192.225C1768.51 191.248 1770.02 190.76 1771.39 190.76C1773.93 190.76 1776.12 192.029 1777.98 194.568C1779.93 197.107 1780.91 201.648 1780.91 208.191C1780.91 212.879 1780.08 218.25 1778.42 224.305C1776.76 230.262 1774.46 236.463 1771.53 242.908C1773.29 245.447 1775.44 247.498 1777.98 249.061C1780.52 250.623 1783.5 251.453 1786.91 251.551L1785.6 258.582C1782.08 258.387 1778.86 257.557 1775.93 256.092C1773 254.529 1770.41 252.479 1768.16 249.939C1764.94 256.092 1761.18 262.098 1756.88 267.957C1752.69 273.719 1748.14 278.846 1743.26 283.338C1738.48 287.83 1733.45 291.443 1728.17 294.178C1722.9 296.912 1717.58 298.279 1712.21 298.279C1709.96 298.279 1707.81 297.84 1705.76 296.961C1703.81 296.082 1702.05 294.764 1700.49 293.006C1698.93 291.248 1697.71 289.002 1696.83 286.268C1695.95 283.533 1695.51 280.311 1695.51 276.6C1695.51 275.232 1695.56 273.768 1695.65 272.205C1695.75 270.643 1695.95 269.031 1696.24 267.371C1693.41 271.766 1690.48 275.867 1687.45 279.676C1684.52 283.484 1681.49 286.756 1678.37 289.49C1675.24 292.225 1671.97 294.373 1668.55 295.936C1665.23 297.498 1661.82 298.279 1658.3 298.279C1654.49 298.279 1651.22 297.645 1648.49 296.375C1645.75 295.008 1643.51 293.152 1641.75 290.809C1639.99 288.367 1638.72 285.535 1637.94 282.312C1637.06 279.09 1636.62 275.574 1636.62 271.766C1636.62 265.027 1637.74 258.143 1639.99 251.111C1642.14 244.08 1645.07 237.195 1648.78 230.457C1652.49 223.719 1656.74 217.371 1661.52 211.414C1666.41 205.457 1671.48 200.184 1676.76 195.594L1683.06 199.695ZM1767.43 233.973C1769.29 229.578 1770.7 225.135 1771.68 220.643C1772.66 216.15 1773.14 211.756 1773.14 207.459C1773.14 204.236 1772.9 201.941 1772.41 200.574C1771.92 199.207 1771.53 198.426 1771.24 198.23C1771.14 198.23 1770.75 198.523 1770.07 199.109C1769.48 199.598 1768.8 200.574 1768.02 202.039C1767.24 203.504 1766.5 205.555 1765.82 208.191C1765.23 210.73 1764.94 214.051 1764.94 218.152C1764.94 220.984 1765.14 223.768 1765.53 226.502C1766.02 229.236 1766.65 231.727 1767.43 233.973Z" fill="#F3F3F2"/>
<path d="M1837.74 182.117C1837.26 182.996 1836.62 183.973 1835.84 185.047C1835.06 186.023 1834.28 187.195 1833.5 188.562C1832.81 189.832 1832.18 191.346 1831.59 193.104C1831.1 194.861 1830.86 196.961 1830.86 199.402C1830.86 201.453 1831.35 204.236 1832.32 207.752C1833.4 211.268 1834.52 215.32 1835.69 219.91C1836.87 224.402 1837.94 229.334 1838.92 234.705C1839.99 239.979 1840.53 245.447 1840.53 251.111C1840.53 259.412 1839.4 266.736 1837.16 273.084C1834.91 279.432 1831.93 284.852 1828.22 289.344C1835.84 285.242 1843.31 279.383 1850.63 271.766C1857.96 264.051 1865.33 254.285 1872.75 242.469L1877.73 246.863C1873.54 253.797 1868.75 260.682 1863.38 267.518C1858.11 274.256 1852.29 280.359 1845.95 285.828C1839.6 291.199 1832.76 295.545 1825.44 298.865C1818.12 302.283 1810.35 303.992 1802.15 303.992C1794.82 303.992 1788.67 302.234 1783.69 298.719C1778.61 295.301 1775.49 290.125 1774.32 283.191L1779.59 282.166C1779.59 282.752 1779.88 283.729 1780.47 285.096C1780.96 286.365 1781.79 287.635 1782.96 288.904C1784.13 290.174 1785.74 291.297 1787.79 292.273C1789.75 293.25 1792.19 293.738 1795.12 293.738C1799.02 293.738 1802.49 292.859 1805.52 291.102C1808.54 289.246 1811.18 286.854 1813.43 283.924C1815.67 280.994 1817.58 277.674 1819.14 273.963C1820.7 270.154 1821.92 266.248 1822.8 262.244C1823.78 258.24 1824.46 254.334 1824.85 250.525C1825.24 246.717 1825.44 243.25 1825.44 240.125C1825.44 237 1825.29 233.533 1825 229.725C1824.8 225.916 1824.56 222.303 1824.27 218.885C1823.97 215.369 1823.68 212.342 1823.39 209.803C1823.19 207.166 1823.1 205.457 1823.1 204.676V204.383C1821.83 205.75 1820.31 207.752 1818.55 210.389C1816.8 213.025 1814.89 215.906 1812.84 219.031C1810.89 222.156 1808.89 225.33 1806.84 228.553C1804.88 231.775 1803.08 234.705 1801.42 237.342C1799.85 239.979 1798.54 242.176 1797.46 243.934C1796.48 245.594 1796 246.473 1796 246.57L1790.72 242.469C1790.82 242.371 1792.04 240.271 1794.38 236.17C1796.73 232.068 1799.8 226.893 1803.61 220.643C1807.52 214.295 1811.91 207.312 1816.8 199.695C1821.68 191.98 1826.71 184.51 1831.88 177.283L1837.74 182.117Z" fill="#F3F3F2"/>
<path d="M350.985 1785.11C353.313 1785.11 355.56 1785.51 357.727 1786.32C359.975 1787.05 361.941 1788.13 363.627 1789.58C365.393 1790.96 366.797 1792.69 367.841 1794.78C368.884 1796.8 369.406 1799.1 369.406 1801.68C369.406 1806.67 367.801 1812.36 364.59 1818.73C361.38 1825.09 357.206 1832.55 352.069 1841.09C346.53 1850.2 341.313 1859.31 336.417 1868.42C331.52 1877.45 326.945 1886.2 322.691 1894.66C318.517 1903.04 314.665 1910.98 311.133 1918.48C307.681 1925.9 304.671 1932.55 302.103 1938.43C305.314 1938.83 308.524 1939.16 311.735 1939.4C314.946 1939.64 317.835 1939.72 320.404 1939.64L320.644 1945.93C320.083 1945.93 317.956 1945.93 314.263 1945.93C310.651 1945.85 305.715 1945.36 299.454 1944.48C296.966 1950.28 295.04 1954.8 293.675 1958.02C292.391 1961.24 291.749 1962.94 291.749 1963.1L277.421 1958.62L284.645 1942.06C279.267 1940.85 273.608 1939.44 267.669 1937.83C261.729 1936.21 255.669 1934.4 249.488 1932.39C243.388 1930.29 237.288 1927.95 231.188 1925.37C225.088 1922.79 219.228 1919.97 213.609 1916.91C208.392 1922.95 202.733 1928.92 196.633 1934.8C190.533 1940.61 183.991 1945.85 177.008 1950.52C170.025 1955.12 162.6 1958.83 154.734 1961.65C146.948 1964.55 138.721 1966 130.052 1966C122.347 1966 114.641 1964.83 106.936 1962.49C99.3105 1960.24 92.4477 1956.93 86.3475 1952.58C80.3275 1948.14 75.4313 1942.78 71.6588 1936.5C67.8863 1930.13 66 1922.91 66 1914.85C66 1908.48 67.204 1902.88 69.612 1898.05C71.9397 1893.21 75.1503 1889.18 79.2439 1885.95C83.4178 1882.73 88.2739 1880.31 93.8122 1878.7C99.4309 1877.01 105.451 1876.16 111.872 1876.16C116.768 1876.16 121.825 1876.64 127.042 1877.61C132.34 1878.58 137.477 1880.19 142.454 1882.45C147.43 1884.7 152.126 1887.69 156.54 1891.4C160.955 1895.1 164.727 1899.7 167.858 1905.18L162.56 1908.57C162.48 1908.4 161.998 1907.8 161.115 1906.75C160.313 1905.62 159.069 1904.29 157.383 1902.76C155.778 1901.15 153.691 1899.46 151.122 1897.68C148.554 1895.91 145.464 1894.3 141.852 1892.85C138.32 1891.31 134.186 1890.07 129.45 1889.1C124.795 1888.05 119.497 1887.53 113.558 1887.53C107.538 1887.53 102.28 1888.57 97.7854 1890.67C93.2905 1892.69 89.518 1895.31 86.4679 1898.53C83.498 1901.67 81.2506 1905.22 79.7255 1909.17C78.2807 1913.12 77.5583 1916.95 77.5583 1920.66C77.5583 1925.01 78.3209 1929 79.8459 1932.63C81.371 1936.17 83.4178 1939.4 85.9863 1942.3C88.6351 1945.2 91.6852 1947.74 95.1366 1949.92C98.6683 1952.01 102.361 1953.79 106.213 1955.24C110.146 1956.69 114.12 1957.78 118.133 1958.5C122.226 1959.23 126.2 1959.59 130.052 1959.59C137.999 1959.59 145.624 1958.3 152.928 1955.72C160.232 1953.06 167.135 1949.6 173.637 1945.32C180.138 1940.97 186.239 1936.05 191.938 1930.57C197.717 1925.09 203.054 1919.49 207.951 1913.76C202.493 1910.46 197.436 1906.91 192.78 1903.12C188.205 1899.25 184.232 1895.14 180.861 1890.79C177.49 1886.36 174.841 1881.64 172.915 1876.64C171.068 1871.57 170.145 1866.2 170.145 1860.56C170.145 1855.89 170.988 1851.49 172.674 1847.38C174.44 1843.27 176.807 1839.68 179.777 1836.62C182.827 1833.48 186.399 1831.02 190.493 1829.25C194.667 1827.39 199.121 1826.46 203.857 1826.46C209.155 1826.46 214.171 1827.31 218.907 1829C223.643 1830.62 228.138 1832.87 232.392 1835.77C236.646 1838.6 240.619 1841.98 244.311 1845.93C248.084 1849.88 251.616 1854.15 254.906 1858.75C263.896 1848.67 272.846 1839.2 281.755 1830.33C290.745 1821.39 299.374 1813.57 307.641 1806.88C315.909 1800.19 323.695 1794.91 330.999 1791.04C338.383 1787.09 345.045 1785.11 350.985 1785.11ZM258.639 1864.31C262.411 1870.11 265.863 1876.12 268.993 1882.33C272.124 1888.53 274.933 1894.62 277.421 1900.58C279.99 1906.55 282.237 1912.23 284.163 1917.63C286.17 1922.95 287.896 1927.67 289.341 1931.78C298.732 1911.23 308.765 1891.07 319.44 1871.32C330.116 1851.57 342.116 1832.07 355.44 1812.8C357.607 1809.58 359.132 1806.92 360.015 1804.82C360.978 1802.64 361.46 1800.79 361.46 1799.26C361.46 1796.68 360.376 1794.74 358.209 1793.45C356.042 1792.08 353.554 1791.4 350.744 1791.4C341.835 1791.4 329.674 1797.53 314.263 1809.78C298.932 1821.95 280.391 1840.13 258.639 1864.31ZM181.102 1866.37C181.102 1870.64 181.904 1874.71 183.51 1878.58C185.115 1882.37 187.322 1886.03 190.132 1889.58C192.941 1893.05 196.272 1896.35 200.125 1899.5C203.978 1902.56 208.151 1905.46 212.646 1908.2C218.666 1900.87 224.807 1893.49 231.067 1886.08C237.328 1878.66 243.669 1871.32 250.09 1864.07C247.281 1860.36 244.351 1856.93 241.301 1853.79C238.331 1850.57 235.201 1847.79 231.91 1845.45C228.619 1843.11 225.208 1841.3 221.676 1840.01C218.145 1838.72 214.492 1838.07 210.72 1838.07C206.466 1838.07 202.533 1838.8 198.921 1840.25C195.309 1841.7 192.178 1843.71 189.53 1846.29C186.881 1848.79 184.794 1851.78 183.269 1855.24C181.824 1858.63 181.102 1862.34 181.102 1866.37ZM284.043 1935.29C282.919 1931.66 281.394 1927.27 279.468 1922.11C277.622 1916.95 275.414 1911.43 272.846 1905.54C270.358 1899.58 267.508 1893.49 264.298 1887.28C261.167 1881.08 257.716 1875.15 253.943 1869.51C248.405 1875.8 242.666 1882.41 236.726 1889.34C230.786 1896.27 224.606 1903.65 218.185 1911.47C223.803 1914.61 229.663 1917.47 235.763 1920.05C241.943 1922.55 247.923 1924.81 253.702 1926.82C259.562 1928.76 265.1 1930.45 270.318 1931.9C275.615 1933.35 280.19 1934.48 284.043 1935.29Z" fill="#F3F3F2"/>
<path d="M421.298 1915.22C420.094 1916.99 418.649 1919.41 416.964 1922.47C415.359 1925.45 413.472 1928.72 411.305 1932.26C409.138 1935.73 406.73 1939.28 404.081 1942.91C401.513 1946.53 398.663 1949.8 395.533 1952.7C392.483 1955.6 389.152 1957.98 385.54 1959.83C381.928 1961.69 378.075 1962.61 373.981 1962.61C371.734 1962.61 369.607 1962.25 367.6 1961.53C365.593 1960.88 363.828 1959.83 362.303 1958.38C360.778 1956.93 359.574 1955.16 358.691 1953.06C357.808 1950.89 357.366 1948.35 357.366 1945.44C357.366 1941.49 358.129 1937.38 359.654 1933.11C361.259 1928.76 363.105 1924.57 365.192 1920.54C367.279 1916.51 369.366 1912.84 371.453 1909.53C373.54 1906.15 375.065 1903.45 376.028 1901.43C376.991 1899.42 377.473 1897.68 377.473 1896.23C377.473 1895.18 377.112 1894.26 376.389 1893.45C375.747 1892.64 374.904 1891.88 373.861 1891.15C372.898 1890.35 371.854 1889.54 370.731 1888.74C369.687 1887.85 368.804 1886.8 368.082 1885.59C366.075 1888.82 364.028 1892.08 361.941 1895.39C360.095 1898.21 358.089 1901.39 355.921 1904.94C353.754 1908.4 351.667 1911.83 349.661 1915.22L345.326 1911.83L371.092 1871.32L374.583 1873.14C374.423 1873.62 374.142 1874.39 373.74 1875.43C373.419 1876.48 373.259 1877.61 373.259 1878.82C373.259 1879.71 373.379 1880.59 373.62 1881.48C373.941 1882.29 374.543 1883.05 375.426 1883.78C378.637 1886.68 381.165 1888.94 383.011 1890.55C384.857 1892.08 386.182 1893.33 386.984 1894.3C387.867 1895.18 388.389 1895.95 388.55 1896.59C388.79 1897.16 388.911 1897.92 388.911 1898.89C388.911 1899.86 388.75 1901.03 388.429 1902.4C388.108 1903.77 387.546 1905.42 386.744 1907.36C386.021 1909.29 384.978 1911.59 383.613 1914.25C382.329 1916.83 380.684 1919.85 378.677 1923.32C377.473 1925.41 376.269 1927.55 375.065 1929.73C373.941 1931.82 372.898 1933.96 371.935 1936.13C371.052 1938.31 370.329 1940.49 369.767 1942.66C369.205 1944.84 368.925 1946.94 368.925 1948.95C368.925 1950.48 369.125 1951.73 369.527 1952.7C370.008 1953.59 370.61 1954.27 371.333 1954.75C372.055 1955.24 372.817 1955.56 373.62 1955.72C374.503 1955.88 375.346 1955.96 376.148 1955.96C378.797 1955.96 381.406 1955.2 383.974 1953.67C386.623 1952.05 389.192 1950 391.68 1947.5C394.249 1945 396.697 1942.18 399.024 1939.04C401.432 1935.81 403.72 1932.55 405.887 1929.24C408.054 1925.94 410.061 1922.79 411.907 1919.81C413.753 1916.75 415.399 1914.09 416.843 1911.83L421.298 1915.22Z" fill="#F3F3F2"/>
<path d="M441.284 1857.18C442.087 1855.81 443.492 1853.43 445.498 1850.04C447.585 1846.66 449.993 1842.91 452.722 1838.8C455.532 1834.69 458.542 1830.58 461.752 1826.46C465.043 1822.27 468.254 1818.73 471.384 1815.82L476.802 1819.09C473.351 1824.81 469.819 1830.9 466.207 1837.35C462.595 1843.71 459.023 1850.32 455.492 1857.18H494.742L492.334 1863.46H452.241C448.629 1870.72 445.218 1877.93 442.007 1885.11C438.876 1892.28 436.107 1899.13 433.699 1905.66C431.291 1912.19 429.405 1918.32 428.041 1924.04C426.676 1929.69 425.994 1934.6 425.994 1938.79C425.994 1944.03 427.198 1947.82 429.606 1950.16C432.014 1952.42 434.984 1953.55 438.515 1953.55C441.646 1953.55 444.856 1952.62 448.147 1950.76C451.438 1948.83 454.649 1946.41 457.779 1943.51C460.99 1940.61 464 1937.42 466.809 1933.96C469.699 1930.49 472.227 1927.23 474.394 1924.16C476.642 1921.1 478.488 1918.44 479.933 1916.18C481.377 1913.85 482.26 1912.39 482.581 1911.83L487.036 1915.22C484.227 1919.89 481.056 1924.85 477.525 1930.09C473.993 1935.33 470.06 1940.2 465.726 1944.72C461.471 1949.15 456.816 1952.86 451.759 1955.84C446.702 1958.75 441.244 1960.2 435.385 1960.2C431.773 1960.2 428.602 1959.55 425.873 1958.26C423.225 1956.97 420.977 1955.2 419.131 1952.94C417.285 1950.6 415.92 1947.86 415.037 1944.72C414.074 1941.58 413.593 1938.15 413.593 1934.44C413.593 1932.02 413.994 1928.6 414.797 1924.16C415.519 1919.73 416.803 1914.49 418.649 1908.44C420.496 1902.32 422.944 1895.47 425.994 1887.89C429.124 1880.31 433.057 1872.17 437.793 1863.46H417.807L420.215 1857.18H441.284Z" fill="#F3F3F2"/>
<path d="M536.641 1849.68C536.641 1851.29 536.239 1852.98 535.437 1854.76C534.634 1856.45 533.591 1857.98 532.306 1859.35C531.102 1860.72 529.738 1861.85 528.213 1862.74C526.688 1863.63 525.163 1864.07 523.638 1864.07C522.273 1864.07 521.23 1863.58 520.507 1862.62C519.785 1861.57 519.424 1860.32 519.424 1858.87C519.424 1857.58 519.664 1856.05 520.146 1854.27C520.628 1852.5 521.35 1850.85 522.313 1849.32C523.276 1847.7 524.44 1846.33 525.805 1845.21C527.169 1844.08 528.734 1843.51 530.5 1843.51C532.186 1843.51 533.631 1844.16 534.835 1845.45C536.039 1846.74 536.641 1848.15 536.641 1849.68ZM514.126 1876.52C513.083 1878.62 511.598 1881.4 509.671 1884.87C507.825 1888.25 505.818 1892 503.651 1896.11C501.484 1900.14 499.277 1904.41 497.029 1908.93C494.782 1913.36 492.735 1917.71 490.889 1921.99C489.123 1926.18 487.678 1930.13 486.555 1933.84C485.431 1937.54 484.869 1940.69 484.869 1943.27C484.869 1945.61 485.351 1947.22 486.314 1948.1C487.277 1948.91 488.642 1949.31 490.407 1949.31C493.698 1949.31 496.909 1948.23 500.039 1946.05C503.17 1943.87 506.26 1941.05 509.31 1937.58C512.44 1934.04 515.491 1930.01 518.46 1925.49C521.43 1920.98 524.4 1916.42 527.37 1911.83L531.704 1915.22C529.377 1919.41 526.728 1923.88 523.758 1928.64C520.868 1933.39 517.618 1937.83 514.006 1941.94C510.394 1945.97 506.42 1949.31 502.086 1951.97C497.752 1954.63 493.016 1955.96 487.879 1955.96C483.063 1955.96 479.371 1954.51 476.802 1951.61C474.234 1948.71 472.949 1944.96 472.949 1940.37C472.949 1934.97 474.194 1929.32 476.682 1923.44C479.17 1917.55 482.26 1911.75 485.953 1906.03C489.725 1900.22 493.779 1894.66 498.113 1889.34C502.528 1884.02 506.581 1879.18 510.273 1874.83L514.126 1876.52Z" fill="#F3F3F2"/>
<path d="M595.275 1883.54C595.757 1882.25 595.998 1880.88 595.998 1879.42C595.998 1876.85 594.954 1874.83 592.867 1873.38C590.86 1871.85 587.65 1871.08 583.235 1871.08C579.623 1871.08 575.971 1871.89 572.279 1873.5C568.667 1875.03 565.175 1877.17 561.804 1879.91C558.433 1882.65 555.262 1885.91 552.293 1889.7C549.403 1893.49 546.875 1897.6 544.707 1902.04C542.621 1906.47 540.935 1911.19 539.651 1916.18C538.447 1921.1 537.845 1926.06 537.845 1931.06C537.845 1935.09 538.286 1938.51 539.169 1941.33C540.052 1944.15 541.296 1946.45 542.901 1948.23C544.507 1950 546.433 1951.29 548.681 1952.09C550.928 1952.82 553.456 1953.18 556.266 1953.18C561.804 1953.18 567.182 1951.93 572.399 1949.43C577.617 1946.94 582.553 1943.71 587.208 1939.76C591.944 1935.73 596.278 1931.26 600.211 1926.34C604.225 1921.42 607.757 1916.59 610.807 1911.83L615.261 1915.22C610.927 1922.55 606.312 1929 601.415 1934.56C596.519 1940.04 591.503 1944.64 586.366 1948.35C581.229 1952.05 576.011 1954.84 570.714 1956.69C565.416 1958.54 560.239 1959.47 555.182 1959.47C551.169 1959.47 547.316 1958.87 543.624 1957.66C540.012 1956.45 536.801 1954.63 533.992 1952.22C531.263 1949.72 529.056 1946.53 527.37 1942.66C525.765 1938.79 524.962 1934.2 524.962 1928.88C524.962 1922.59 525.845 1916.67 527.611 1911.1C529.457 1905.46 531.865 1900.26 534.835 1895.51C537.885 1890.75 541.376 1886.48 545.309 1882.69C549.242 1878.82 553.336 1875.56 557.59 1872.9C561.925 1870.24 566.259 1868.22 570.593 1866.85C575.008 1865.4 579.142 1864.67 582.994 1864.67C586.927 1864.67 590.138 1865.24 592.626 1866.37C595.115 1867.41 597.081 1868.7 598.526 1870.24C599.971 1871.77 600.934 1873.38 601.415 1875.07C601.977 1876.76 602.258 1878.22 602.258 1879.42C602.258 1881.36 601.977 1883.42 601.415 1885.59C600.854 1887.77 600.051 1889.78 599.008 1891.64C598.044 1893.41 596.8 1894.9 595.275 1896.11C593.83 1897.32 592.225 1897.92 590.459 1897.92C588.693 1897.92 587.168 1897.36 585.884 1896.23C584.6 1895.02 583.958 1893.53 583.958 1891.76C583.958 1891.68 583.998 1891.19 584.078 1890.31C584.239 1889.42 584.64 1888.49 585.282 1887.53C585.924 1886.48 586.887 1885.55 588.172 1884.75C589.536 1883.94 591.422 1883.54 593.83 1883.54H595.275Z" fill="#F3F3F2"/>
<path d="M698.096 1781C700.905 1781 703.233 1781.69 705.079 1783.06C707.006 1784.43 707.969 1786.92 707.969 1790.55C707.969 1793.05 707.447 1796.03 706.404 1799.5C705.44 1802.97 704.076 1806.75 702.31 1810.87C700.624 1814.9 698.618 1819.17 696.29 1823.68C693.962 1828.12 691.434 1832.55 688.705 1836.98C686.056 1841.42 683.247 1845.73 680.277 1849.92C677.387 1854.11 674.498 1857.98 671.608 1861.53C665.829 1868.7 660.812 1874.75 656.558 1879.67C652.385 1884.58 648.773 1888.78 645.722 1892.24C642.672 1895.63 640.104 1898.41 638.017 1900.58C635.93 1902.68 634.084 1904.49 632.478 1906.03C630.873 1907.56 629.388 1908.97 628.024 1910.26C626.659 1911.47 625.255 1912.84 623.81 1914.37C623.168 1917.43 622.847 1920.37 622.847 1923.2C622.927 1925.94 622.967 1928.48 622.967 1930.81C622.967 1937.83 624.091 1943.03 626.338 1946.41C628.586 1949.8 631.756 1951.49 635.85 1951.49C638.579 1951.49 641.308 1950.81 644.037 1949.43C646.846 1947.98 649.615 1946.13 652.344 1943.87C655.073 1941.62 657.722 1939.08 660.291 1936.25C662.859 1933.35 665.267 1930.45 667.515 1927.55C669.842 1924.57 671.929 1921.7 673.775 1918.96C675.622 1916.22 677.227 1913.85 678.591 1911.83L683.046 1915.22C682.805 1915.54 682.003 1916.83 680.638 1919.08C679.354 1921.26 677.628 1923.92 675.461 1927.07C673.294 1930.21 670.725 1933.59 667.755 1937.22C664.786 1940.77 661.575 1944.07 658.124 1947.14C654.672 1950.2 651.02 1952.74 647.167 1954.75C643.395 1956.77 639.542 1957.78 635.609 1957.78C632.318 1957.78 629.147 1957.17 626.097 1955.96C623.127 1954.67 620.479 1952.7 618.151 1950.04C615.904 1947.3 614.057 1943.83 612.613 1939.64C611.248 1935.45 610.566 1930.41 610.566 1924.53C610.566 1917.19 611.409 1909.53 613.094 1901.55C614.86 1893.49 617.228 1885.43 620.198 1877.37C623.168 1869.23 626.659 1861.21 630.673 1853.31C634.686 1845.41 638.94 1837.91 643.435 1830.82C648.01 1823.64 652.746 1817.03 657.642 1810.99C662.618 1804.86 667.475 1799.58 672.21 1795.15C677.026 1790.71 681.642 1787.25 686.056 1784.75C690.471 1782.25 694.484 1781 698.096 1781ZM625.977 1903.61C632.8 1896.51 639.381 1889.34 645.722 1882.08C652.144 1874.75 658.124 1867.53 663.662 1860.44C669.281 1853.27 674.418 1846.33 679.073 1839.64C683.728 1832.87 687.702 1826.5 690.993 1820.54C694.283 1814.57 696.852 1809.13 698.698 1804.22C700.544 1799.3 701.467 1795.07 701.467 1791.52C701.467 1790.87 701.146 1790.03 700.504 1788.98C699.862 1787.85 699.099 1787.29 698.216 1787.29C695.728 1787.29 692.437 1788.94 688.344 1792.25C684.25 1795.55 679.795 1800.06 674.979 1805.79C670.244 1811.43 665.307 1818.04 660.17 1825.62C655.114 1833.19 650.338 1841.3 645.843 1849.92C641.348 1858.55 637.335 1867.45 633.803 1876.64C630.271 1885.83 627.663 1894.82 625.977 1903.61Z" fill="#F3F3F2"/>
<path d="M687.742 1929.36C687.581 1930.33 687.461 1931.3 687.381 1932.26C687.3 1933.23 687.26 1934.2 687.26 1935.17C687.26 1938.07 687.661 1940.85 688.464 1943.51C689.347 1946.09 690.591 1948.39 692.197 1950.4C693.882 1952.34 695.929 1953.87 698.337 1955C700.825 1956.13 703.634 1956.69 706.765 1956.69C717.28 1956.69 727.433 1953.1 737.226 1945.93C747.018 1938.75 756.771 1927.39 766.483 1911.83L770.576 1915.46C765.279 1924.32 759.901 1931.82 754.443 1937.95C748.985 1943.99 743.527 1948.91 738.069 1952.7C732.691 1956.49 727.393 1959.23 722.176 1960.92C716.959 1962.61 711.982 1963.46 707.246 1963.46C703.795 1963.46 700.143 1962.98 696.29 1962.01C692.437 1961.04 688.865 1959.43 685.575 1957.17C682.364 1954.92 679.715 1951.89 677.628 1948.1C675.461 1944.32 674.377 1939.6 674.377 1933.96C674.377 1927.91 675.421 1922.11 677.508 1916.55C679.514 1910.9 682.163 1905.66 685.454 1900.83C688.745 1895.99 692.518 1891.6 696.772 1887.65C701.026 1883.62 705.32 1880.19 709.654 1877.37C714.069 1874.55 718.363 1872.37 722.537 1870.84C726.711 1869.23 730.403 1868.42 733.614 1868.42C735.701 1868.42 737.828 1868.74 739.995 1869.39C742.162 1870.03 744.089 1871.04 745.774 1872.41C747.54 1873.78 748.945 1875.6 749.988 1877.85C751.112 1880.11 751.674 1882.81 751.674 1885.95C751.674 1890.23 750.67 1894.26 748.664 1898.05C746.737 1901.75 744.129 1905.22 740.838 1908.44C737.547 1911.59 733.734 1914.45 729.4 1917.03C725.066 1919.53 720.53 1921.66 715.795 1923.44C711.059 1925.21 706.283 1926.62 701.467 1927.67C696.651 1928.72 692.076 1929.28 687.742 1929.36ZM688.705 1924.16C694.083 1923.6 699.14 1922.47 703.875 1920.78C708.611 1919.08 712.945 1917.03 716.878 1914.61C720.811 1912.11 724.303 1909.41 727.353 1906.51C730.483 1903.61 733.092 1900.67 735.179 1897.68C737.266 1894.7 738.871 1891.84 739.995 1889.1C741.119 1886.36 741.681 1883.9 741.681 1881.72C741.681 1879.55 741.079 1877.81 739.875 1876.52C738.751 1875.23 737.386 1874.59 735.781 1874.59C732.249 1874.59 728.276 1875.88 723.862 1878.46C719.447 1880.96 715.032 1884.46 710.618 1888.98C706.203 1893.41 702.029 1898.65 698.096 1904.7C694.243 1910.74 691.113 1917.23 688.705 1924.16Z" fill="#F3F3F2"/>
<path d="M805.131 1862.01C804.73 1862.74 804.208 1863.54 803.566 1864.43C802.924 1865.24 802.282 1866.2 801.639 1867.33C801.078 1868.38 800.556 1869.63 800.074 1871.08C799.673 1872.53 799.472 1874.27 799.472 1876.28C799.472 1877.97 799.874 1880.27 800.676 1883.17C801.559 1886.08 802.482 1889.42 803.445 1893.21C804.409 1896.92 805.292 1900.99 806.094 1905.42C806.977 1909.77 807.419 1914.29 807.419 1918.96C807.419 1925.82 806.496 1931.86 804.649 1937.1C802.803 1942.34 800.355 1946.81 797.305 1950.52C803.566 1947.14 809.706 1942.3 815.726 1936.01C821.746 1929.64 827.806 1921.58 833.906 1911.83L838 1915.46C834.549 1921.18 830.616 1926.86 826.201 1932.51C821.867 1938.07 817.091 1943.11 811.873 1947.62C806.656 1952.05 801.037 1955.64 795.017 1958.38C788.998 1961.2 782.616 1962.61 775.874 1962.61C769.854 1962.61 764.797 1961.16 760.704 1958.26C756.53 1955.44 753.961 1951.17 752.998 1945.44L757.333 1944.6C757.333 1945.08 757.573 1945.89 758.055 1947.02C758.456 1948.06 759.139 1949.11 760.102 1950.16C761.065 1951.21 762.389 1952.14 764.075 1952.94C765.68 1953.75 767.687 1954.15 770.095 1954.15C773.305 1954.15 776.155 1953.42 778.643 1951.97C781.131 1950.44 783.299 1948.47 785.145 1946.05C786.991 1943.63 788.556 1940.89 789.84 1937.83C791.125 1934.68 792.128 1931.46 792.85 1928.15C793.653 1924.85 794.215 1921.62 794.536 1918.48C794.857 1915.34 795.017 1912.47 795.017 1909.9C795.017 1907.32 794.897 1904.45 794.656 1901.31C794.496 1898.17 794.295 1895.18 794.054 1892.36C793.813 1889.46 793.573 1886.96 793.332 1884.87C793.171 1882.69 793.091 1881.28 793.091 1880.63V1880.39C792.048 1881.52 790.804 1883.17 789.359 1885.35C787.914 1887.53 786.349 1889.9 784.663 1892.48C783.058 1895.06 781.412 1897.68 779.727 1900.34C778.121 1903 776.637 1905.42 775.272 1907.6C773.988 1909.77 772.904 1911.59 772.021 1913.04C771.219 1914.41 770.817 1915.14 770.817 1915.22L766.483 1911.83C766.563 1911.75 767.566 1910.02 769.493 1906.63C771.419 1903.25 773.948 1898.97 777.078 1893.81C780.289 1888.57 783.901 1882.81 787.914 1876.52C791.927 1870.15 796.061 1863.99 800.315 1858.02L805.131 1862.01Z" fill="#F3F3F2"/>
</g>
<defs>
<clipPath id="clip0_12_14">
<rect width="2100" height="2023" fill="white"/>
</clipPath>
</defs>
</svg>
